General
Complete name                            : The Help [2011] 720p BRRip H264 AAC - CODY.mp4
Format                                   : MPEG-4
Format profile                           : Base Media
Codec ID                                 : isom
File size                                : 2.17 GiB
Duration                                 : 2h 26mn
Overall bit rate mode                    : Variable
Overall bit rate                         : 2 120 Kbps
Encoded date                             : UTC 2011-11-20 12:53:02
Tagged date                              : UTC 2011-11-20 12:53:02
Writing application                      : Yamb 2.1.0.0 [http://yamb.unite-video.com]

Video
ID                                       : 1
Format                                   : AVC
Format/Info                              : Advanced Video Codec
Format profile                           : High@L4.1
Format settings, CABAC                   : Yes
Format settings, ReFrames                : 4 frames
Codec ID                                 : avc1
Codec ID/Info                            : Advanced Video Coding
Duration                                 : 2h 26mn
Bit rate                                 : 1 800 Kbps
Maximum bit rate                         : 13.9 Mbps
Width                                    : 1 280 pixels
Height                                   : 696 pixels
Display aspect ratio                     : 16:9
Frame rate mode                          : Constant
Frame rate                               : 23.976 fps
Color space                              : YUV
Chroma subsampling                       : 4:2:0
Bit depth                                : 8 bits
Scan type                                : Progressive
Bits/(Pixel*Frame)                       : 0.084
Stream size                              : 1.84 GiB (85%)
Writing library                          : x264 core 119 r2106 07efeb4
Encoding settings                        : cabac=1 / ref=4 / deblock=1:0:0 / analyse=0x3:0x113 /
 me=umh / subme=9 / psy=1 / psy_rd=1.00:1.00 / mixed_ref=1 / me_range=16 / chroma_me=1 /
 trellis=2 / 8x8dct=1 / cqm=0 / deadzone=21,11 / fast_pskip=0 / chroma_qp_offset=-6 / threads=12 /
 sliced_threads=0 / nr=0 / decimate=1 / interlaced=0 / bluray_compat=0 / constrained_intra=0 /
 bframes=3 / b_pyramid=2 / b_adapt=2 / b_bias=0 / direct=3 / weightb=1 / open_gop=0 / weightp=2 /
 keyint=250 / keyint_min=23 / scenecut=40 / intra_refresh=0 / rc_lookahead=50 / rc=2pass /
 mbtree=1 / bitrate=1800 / ratetol=1.0 / qcomp=0.90 / qpmin=10 / qpmax=51 / qpstep=4 /
 cplxblur=20.0 / qblur=0.5 / vbv_maxrate=40000 / vbv_bufsize=40000 / nal_hrd=none / 
ip_ratio=1.40 / aq=1:1.00
Encoded date                             : UTC 2011-11-20 12:53:02
Tagged date                              : UTC 2011-11-20 12:53:55

Audio
ID                                       : 2
Format                                   : AAC
Format/Info                              : Advanced Audio Codec
Format profile                           : LC
Codec ID                                 : 40
Duration                                 : 2h 26mn
Bit rate mode                            : Variable
Bit rate                                 : 316 Kbps
Maximum bit rate                         : 420 Kbps
Channel(s)                               : 6 channels
Channel positions                        : Front: L C R, Side: L R, LFE
Sampling rate                            : 48.0 KHz
Compression mode                         : Lossy
Stream size                              : 330 MiB (15%)
Encoded date                             : UTC 2011-11-20 12:53:47
Tagged date                              : UTC 2011-11-20 12:53:55




IMDB link:                                 http://www.imdb.com/title/tt1454029/



Subtitles included                       : Romanian




Please seed at least 1,5:1. This way this torrent has a chance to survive !




Thanks. Enjoy!
